<?xml version="1.0" encoding="UTF-8"?>
<svg id="assimilative" xmlns="http://www.w3.org/2000/svg" viewBox="0 0 400 400">
  <defs>
    <style>
      .cls-1 {
        fill: currentColor;
        stroke-width: 0px;
      }
    </style>
  </defs>
  <g id="text" fill="currentColor">
    <path class="cls-1" d="M118.05,330.35h-3.42l-6.9,17.49h3.62l1.47-3.85h7.25l1.47,3.85h3.62l-6.9-17.49h-.22ZM113.99,340.97l2.47-6.44,2.47,6.44h-4.93Z"/>
    <path class="cls-1" d="M136.52,337.82l-2.3-.58c-.65-.17-1.16-.41-1.54-.72s-.56-.75-.56-1.3c0-.7.24-1.24.71-1.62.47-.38,1.13-.58,1.96-.58s1.49.2,2.02.6c.53.4.9.88,1.1,1.45l3.32-1.03c-.3-.82-.73-1.52-1.3-2.12s-1.27-1.06-2.11-1.39c-.84-.33-1.82-.49-2.94-.49-2,0-3.54.46-4.64,1.39-1.09.92-1.64,2.21-1.64,3.86,0,.87.18,1.62.55,2.27.37.65.87,1.2,1.52,1.64.65.44,1.4.77,2.25.99l2.27.6c.77.2,1.37.49,1.81.86s.66.84.66,1.39c0,.63-.28,1.15-.84,1.55-.56.4-1.28.59-2.16.58-.83-.02-1.52-.23-2.07-.64s-.93-.9-1.15-1.46l-3.35,1c.12.53.37,1.04.76,1.52s.89.92,1.49,1.31c.6.39,1.28.7,2.05.91.77.22,1.59.33,2.47.33,1.35,0,2.5-.22,3.45-.65.95-.43,1.67-1.04,2.17-1.81.5-.77.75-1.68.75-2.71,0-1.17-.42-2.22-1.25-3.17-.83-.95-2-1.61-3.5-1.97Z"/>
    <path class="cls-1" d="M153.44,337.82l-2.3-.58c-.65-.17-1.16-.41-1.54-.72s-.56-.75-.56-1.3c0-.7.24-1.24.71-1.62.47-.38,1.13-.58,1.96-.58s1.49.2,2.02.6c.53.4.9.88,1.1,1.45l3.32-1.03c-.3-.82-.73-1.52-1.3-2.12s-1.27-1.06-2.11-1.39c-.84-.33-1.82-.49-2.94-.49-2,0-3.54.46-4.64,1.39-1.09.92-1.64,2.21-1.64,3.86,0,.87.18,1.62.55,2.27.37.65.87,1.2,1.52,1.64.65.44,1.4.77,2.25.99l2.27.6c.77.2,1.37.49,1.81.86s.66.84.66,1.39c0,.63-.28,1.15-.84,1.55-.56.4-1.28.59-2.16.58-.83-.02-1.52-.23-2.07-.64s-.93-.9-1.15-1.46l-3.35,1c.12.53.37,1.04.76,1.52s.89.92,1.49,1.31c.6.39,1.28.7,2.05.91.77.22,1.59.33,2.47.33,1.35,0,2.5-.22,3.45-.65.95-.43,1.67-1.04,2.17-1.81.5-.77.75-1.68.75-2.71,0-1.17-.42-2.22-1.25-3.17-.83-.95-2-1.61-3.5-1.97Z"/>
    <rect class="cls-1" x="162.86" y="330.35" width="3.42" height="17.49"/>
    <polygon class="cls-1" points="186.05 330.38 185.75 330.35 180.66 337.91 175.56 330.35 175.26 330.38 175.26 330.35 171.83 330.35 171.83 347.84 175.26 347.84 175.26 335.78 180.66 343.64 186.05 335.71 186.05 347.84 189.45 347.84 189.45 330.35 186.05 330.35 186.05 330.38"/>
    <rect class="cls-1" x="195" y="330.35" width="3.42" height="17.49"/>
    <polygon class="cls-1" points="207.4 330.35 203.97 330.35 203.97 347.84 206.17 347.84 207.4 347.84 215.09 347.84 215.09 344.72 207.4 344.72 207.4 330.35"/>
    <path class="cls-1" d="M227.76,330.35h-3.42l-6.9,17.49h3.62l1.47-3.85h7.25l1.47,3.85h3.62l-6.9-17.49h-.22ZM223.7,340.97l2.47-6.44,2.47,6.44h-4.93Z"/>
    <polygon class="cls-1" points="235.99 333.47 241.23 333.47 241.23 347.84 244.66 347.84 244.66 333.47 249.88 333.47 249.88 330.35 235.99 330.35 235.99 333.47"/>
    <rect class="cls-1" x="253.88" y="330.35" width="3.42" height="17.49"/>
    <polygon class="cls-1" points="269.98 343.92 264.83 330.35 261.15 330.35 268.13 347.84 268.5 347.84 271.47 347.84 271.85 347.84 278.8 330.35 275.12 330.35 269.98 343.92"/>
    <polygon class="cls-1" points="286.07 344.72 286.07 340.49 292.67 340.49 292.67 337.44 286.07 337.44 286.07 333.47 293.72 333.47 293.72 330.35 286.07 330.35 285.24 330.35 282.64 330.35 282.64 347.84 285.24 347.84 286.07 347.84 293.82 347.84 293.82 344.72 286.07 344.72"/>
  </g>
  <g id="symbol" fill="currentColor">
    <path class="cls-1" d="M308.39,139.77c0-43.03-34.88-77.91-77.91-77.91-36.53,0-67.18,25.14-75.61,59.05-36.04,6.85-63.28,38.51-63.28,76.53,0,43.03,34.88,77.91,77.91,77.91,36.53,0,67.18-25.14,75.61-59.05,36.04-6.85,63.28-38.51,63.28-76.53ZM219.53,247.49c-13.37,13.37-31.14,20.73-50.04,20.73s-36.67-7.36-50.04-20.73c-13.37-13.37-20.73-31.14-20.73-50.04s7.36-36.67,20.73-50.04c9.48-9.48,21.18-15.93,33.92-18.89-.53,3.67-.81,7.43-.81,11.25,0,43.03,34.88,77.91,77.91,77.91,2.34,0,4.66-.11,6.95-.31-3.29,11.26-9.36,21.59-17.89,30.11ZM239.15,210.01c-2.86.35-5.75.52-8.67.52-18.9,0-36.67-7.36-50.04-20.73-13.37-13.37-20.73-31.14-20.73-50.04,0-4.26.38-8.46,1.11-12.56,2.86-.35,5.75-.52,8.67-.52,18.9,0,36.67,7.36,50.04,20.73,13.37,13.37,20.73,31.14,20.73,50.04,0,4.26-.38,8.46-1.11,12.56ZM246.6,208.7c.53-3.67.81-7.43.81-11.25,0-43.03-34.88-77.91-77.91-77.91-2.34,0-4.66.11-6.95.31,3.29-11.26,9.36-21.59,17.89-30.11,13.37-13.37,31.14-20.73,50.04-20.73s36.67,7.36,50.04,20.73c13.37,13.37,20.73,31.14,20.73,50.04s-7.36,36.67-20.73,50.04c-9.48,9.48-21.18,15.93-33.92,18.89Z"/>
    <path class="cls-1" d="M224.86,224.57c-9.66,20.93-30.81,35.47-55.38,35.47-33.68,0-60.99-27.31-60.99-60.99,0-25.16,15.25-46.75,37-56.07.39,10.32,2.61,20.34,6.62,29.83,4.28,10.13,10.42,19.23,18.23,27.04,7.81,7.81,16.91,13.94,27.04,18.23,8.77,3.71,18,5.88,27.49,6.5Z"/>
    <path class="cls-1" d="M176.06,136.81l-9.54,9.54c-.23-2.16-.35-4.35-.35-6.56,0-1.09.03-2.17.09-3.25,1.08-.06,2.16-.09,3.25-.09,2.22,0,4.41.12,6.56.35ZM192.54,190.01l27.17-27.17c1.39,2.02,2.66,4.12,3.81,6.3l-24.68,24.68c-2.18-1.15-4.28-2.42-6.3-3.81ZM215.41,157.31l-28.4,28.4c-1.8-1.57-3.5-3.24-5.1-5.01l28.49-28.49c1.77,1.6,3.44,3.3,5.01,5.1ZM204.95,147.82l-27.43,27.43c-1.42-1.98-2.72-4.06-3.9-6.21l25.12-25.12c2.15,1.18,4.22,2.48,6.21,3.9ZM192.05,140.77l-21.58,21.58c-.98-2.47-1.81-5.02-2.47-7.64l16.41-16.41c2.62.66,5.17,1.48,7.64,2.47ZM205.63,196.87l20.94-20.94c.95,2.51,1.74,5.1,2.35,7.76l-15.53,15.53c-2.66-.61-5.25-1.4-7.76-2.35ZM221.9,200.56l8.36-8.36c.15,1.73.23,3.48.23,5.25,0,1.09-.03,2.17-.09,3.25-1.08.06-2.16.09-3.25.09-1.77,0-3.52-.08-5.25-.23Z"/>
  </g>
</svg>