<?xml version="1.0" encoding="UTF-8"?>
<svg id="evaluative" xmlns="http://www.w3.org/2000/svg" viewBox="0 0 400 400">
  <defs>
    <style>
      .cls-1 {
        fill: #000;
        stroke-width: 0px;
      }
    </style>
  </defs>
  <g id="text">
    <polygon class="cls-1" points="123.11 340.5 129.71 340.5 129.71 337.45 123.11 337.45 123.11 333.48 130.76 333.48 130.76 330.36 123.11 330.36 122.29 330.36 119.69 330.36 119.69 347.85 122.29 347.85 123.11 347.85 130.86 347.85 130.86 344.73 123.11 344.73 123.11 340.5"/>
    <polygon class="cls-1" points="143.29 343.93 138.13 330.36 134.46 330.36 141.43 347.85 141.81 347.85 144.78 347.85 145.15 347.85 152.1 330.36 148.43 330.36 143.29 343.93"/>
    <path class="cls-1" d="M162.62,330.36h-3.42l-6.9,17.49h3.62l1.47-3.85h7.25l1.47,3.85h3.62l-6.9-17.49h-.22ZM158.56,340.98l2.47-6.44,2.47,6.44h-4.93Z"/>
    <polygon class="cls-1" points="177.02 330.36 173.59 330.36 173.59 347.85 175.79 347.85 177.02 347.85 184.72 347.85 184.72 344.73 177.02 344.73 177.02 330.36"/>
    <path class="cls-1" d="M199.39,341.33c0,.75-.15,1.4-.46,1.96-.31.56-.74.99-1.3,1.29-.56.3-1.21.45-1.96.45s-1.4-.15-1.96-.45c-.56-.3-.99-.73-1.3-1.29-.31-.56-.46-1.21-.46-1.96v-10.97h-3.42v10.97c0,1.4.29,2.61.86,3.64s1.4,1.82,2.46,2.39c1.07.57,2.32.85,3.77.85s2.74-.28,3.81-.85c1.07-.57,1.91-1.36,2.5-2.39.59-1.02.89-2.24.89-3.64v-10.97h-3.42v10.97Z"/>
    <path class="cls-1" d="M216.73,330.36h-3.42l-6.9,17.49h3.62l1.47-3.85h7.25l1.47,3.85h3.62l-6.9-17.49h-.22ZM212.66,340.98l2.47-6.44,2.47,6.44h-4.93Z"/>
    <polygon class="cls-1" points="224.95 333.48 230.2 333.48 230.2 347.85 233.62 347.85 233.62 333.48 238.85 333.48 238.85 330.36 224.95 330.36 224.95 333.48"/>
    <rect class="cls-1" x="242.85" y="330.36" width="3.42" height="17.49"/>
    <polygon class="cls-1" points="258.95 343.93 253.79 330.36 250.12 330.36 257.09 347.85 257.47 347.85 260.44 347.85 260.81 347.85 267.76 330.36 264.09 330.36 258.95 343.93"/>
    <polygon class="cls-1" points="275.03 344.73 275.03 340.5 281.63 340.5 281.63 337.45 275.03 337.45 275.03 333.48 282.68 333.48 282.68 330.36 275.03 330.36 274.21 330.36 271.61 330.36 271.61 347.85 274.21 347.85 275.03 347.85 282.78 347.85 282.78 344.73 275.03 344.73"/>
  </g>
  <path id="symbol" class="cls-1" d="M164.5,103.92v37.87l-37.87-18.93,37.87-18.93M171.64,92.35l-61,30.5,61,30.5v-61h0ZM239.79,103.92l37.87,18.93-37.87,18.93v-37.87M232.64,92.35v61l61-30.5-61-30.5h0ZM141.14,189.09c13.93,0,25.26,11.33,25.26,25.26s-11.33,25.26-25.26,25.26-25.26-11.33-25.26-25.26,11.33-25.26,25.26-25.26M141.14,181.94c-17.9,0-32.41,14.51-32.41,32.41s14.51,32.41,32.41,32.41,32.41-14.51,32.41-32.41-14.51-32.41-32.41-32.41h0ZM286.5,191v46.7h-46.7v-46.7h46.7M293.64,183.85h-61v61h61v-61h0ZM205.72,92.35v-15.25c0-1.97-1.6-3.57-3.57-3.57s-3.57,1.6-3.57,3.57v15.25c0,1.97,1.6,3.57,3.57,3.57s3.57-1.6,3.57-3.57ZM205.72,125.9v-15.25c0-1.97-1.6-3.57-3.57-3.57s-3.57,1.6-3.57,3.57v15.25c0,1.97,1.6,3.57,3.57,3.57s3.57-1.6,3.57-3.57ZM205.72,159.45v-15.25c0-1.97-1.6-3.57-3.57-3.57s-3.57,1.6-3.57,3.57v15.25c0,1.97,1.6,3.57,3.57,3.57s3.57-1.6,3.57-3.57ZM205.72,193v-15.25c0-1.97-1.6-3.57-3.57-3.57s-3.57,1.6-3.57,3.57v15.25c0,1.97,1.6,3.57,3.57,3.57s3.57-1.6,3.57-3.57ZM205.72,226.55v-15.25c0-1.97-1.6-3.57-3.57-3.57s-3.57,1.6-3.57,3.57v15.25c0,1.97,1.6,3.57,3.57,3.57s3.57-1.6,3.57-3.57ZM205.72,260.1v-15.25c0-1.97-1.6-3.57-3.57-3.57s-3.57,1.6-3.57,3.57v15.25c0,1.97,1.6,3.57,3.57,3.57s3.57-1.6,3.57-3.57Z"/>
</svg>