<svg xmlns="http://www.w3.org/2000/svg" version="1.1" xmlns:xlink="http://www.w3.org/1999/xlink" xmlns:svgjs="http://svgjs.com/svgjs" width="270" height="270"><svg id="SvgjsSvg1000" data-name="Layer 1" xmlns="http://www.w3.org/2000/svg" viewBox="0 0 270 270">
  <defs>
    <style>
      .cls-1 {
        fill: #404040;
        stroke-width: 0px;
      }
    </style>
  </defs>
  <path class="cls-1" d="M135.19,30.46c-16.3-.21-29.67,12.84-29.88,29.13-.21,16.3,12.84,29.67,29.13,29.88s29.67-12.84,29.88-29.13c.21-16.3-12.84-29.67-29.13-29.88ZM134.55,80.62c-11.39-.14-20.54-9.53-20.39-20.92.14-11.39,9.53-20.54,20.92-20.39,11.39.14,20.54,9.53,20.39,20.92-.14,11.39-9.53,20.54-20.92,20.39Z"></path>
  <path class="cls-1" d="M72.17,60.96c-16.3-.21-29.67,12.84-29.88,29.13-.21,16.3,12.84,29.67,29.13,29.88s29.67-12.84,29.88-29.13c.21-16.3-12.84-29.67-29.13-29.88ZM71.54,111.12c-11.39-.14-20.54-9.53-20.39-20.92s9.53-20.54,20.92-20.39c11.39.14,20.54,9.53,20.39,20.92s-9.53,20.54-20.92,20.39Z"></path>
  <path class="cls-1" d="M56.72,129.24c-16.3-.21-29.67,12.84-29.88,29.13s12.84,29.67,29.13,29.88c16.3.21,29.67-12.84,29.88-29.13s-12.84-29.67-29.13-29.88ZM56.09,179.4c-11.39-.14-20.54-9.53-20.39-20.92.14-11.39,9.53-20.54,20.92-20.39,11.39.14,20.54,9.53,20.39,20.92-.14,11.39-9.53,20.54-20.92,20.39Z"></path>
  <path class="cls-1" d="M214.03,128.94c-16.3-.21-29.67,12.84-29.88,29.13s12.84,29.67,29.13,29.88c16.3.21,29.67-12.84,29.88-29.13s-12.84-29.67-29.13-29.88ZM213.39,179.1c-11.39-.14-20.54-9.53-20.39-20.92.14-11.39,9.53-20.54,20.92-20.39s20.54,9.53,20.39,20.92c-.14,11.39-9.53,20.54-20.92,20.39Z"></path>
  <path class="cls-1" d="M198.32,60.72c-16.3-.21-29.67,12.84-29.88,29.13s12.84,29.67,29.13,29.88,29.67-12.84,29.88-29.13-12.84-29.67-29.13-29.88ZM197.68,110.88c-11.39-.14-20.54-9.53-20.39-20.92s9.53-20.54,20.92-20.39c11.39.14,20.54,9.53,20.39,20.92s-9.53,20.54-20.92,20.39Z"></path>
  <path class="cls-1" d="M100.47,183.89c-16.3-.21-29.67,12.84-29.88,29.13s12.84,29.67,29.13,29.88c16.3.21,29.67-12.84,29.88-29.13.21-16.3-12.84-29.67-29.13-29.88ZM99.84,234.05c-11.39-.14-20.54-9.53-20.39-20.92.14-11.39,9.53-20.54,20.92-20.39s20.54,9.53,20.39,20.92c-.14,11.39-9.53,20.54-20.92,20.39Z"></path>
  <path class="cls-1" d="M170.48,183.76c-16.3-.21-29.67,12.84-29.88,29.13-.21,16.3,12.84,29.67,29.13,29.88s29.67-12.84,29.88-29.13-12.84-29.67-29.13-29.88ZM169.84,233.92c-11.39-.14-20.54-9.53-20.39-20.92.14-11.39,9.53-20.54,20.92-20.39s20.54,9.53,20.39,20.92c-.14,11.39-9.53,20.54-20.92,20.39Z"></path>
</svg><style>@media (prefers-color-scheme: light) { :root { filter: none; } }
@media (prefers-color-scheme: dark) { :root { filter: contrast(0.3846153846153846) brightness(4.5); } }
</style></svg>