<?xml version="1.0" encoding="UTF-8"?>
<svg id="formative" xmlns="http://www.w3.org/2000/svg" viewBox="0 0 400 400">
  <defs>
    <style>
      .cls-1 {
        fill: #fff;
        stroke-width: 0px;
      }
    </style>
  </defs>
  <g id="text">
    <polygon class="cls-1" points="127.7 330.35 124.95 330.35 124.95 347.84 128.37 347.84 128.37 340.79 134.87 340.79 134.87 337.67 128.37 337.67 128.37 333.47 136.17 333.47 136.17 330.35 128.37 330.35 127.7 330.35"/>
    <path class="cls-1" d="M153.12,331.23c-1.35-.77-2.9-1.16-4.65-1.16s-3.29.38-4.64,1.15-2.4,1.83-3.16,3.19c-.77,1.36-1.15,2.92-1.15,4.69s.38,3.33,1.15,4.69c.77,1.36,1.83,2.42,3.19,3.2,1.36.77,2.92,1.16,4.69,1.16s3.29-.39,4.62-1.16c1.33-.77,2.38-1.84,3.14-3.2.76-1.36,1.14-2.91,1.14-4.66s-.38-3.33-1.15-4.69c-.77-1.36-1.83-2.42-3.17-3.2ZM153.25,342.16c-.46.89-1.1,1.59-1.91,2.1-.82.51-1.75.76-2.8.76s-2.04-.25-2.87-.76c-.83-.51-1.48-1.2-1.95-2.09s-.7-1.9-.7-3.05.23-2.19.7-3.07,1.11-1.58,1.94-2.09c.83-.51,1.76-.76,2.81-.76s2.03.25,2.85.76c.82.51,1.46,1.2,1.92,2.09.47.88.7,1.9.7,3.05s-.23,2.17-.69,3.06Z"/>
    <path class="cls-1" d="M171.63,340.93c.97-.47,1.73-1.14,2.29-2,.56-.86.84-1.84.84-2.94s-.27-2.1-.8-2.95-1.27-1.52-2.22-2.01c-.95-.49-2.04-.73-3.27-.71l-3.47.03h-3.02v17.49h3.42v-6.2h2.62l3.57,6.2h3.87l-4.06-6.81c.08-.03.16-.06.23-.1ZM165.39,333.47h2.92c.85,0,1.54.23,2.09.7.54.47.81,1.08.81,1.83,0,.48-.12.92-.36,1.3-.24.38-.57.68-.97.9-.41.22-.87.32-1.39.32h-3.1v-5.05Z"/>
    <polygon class="cls-1" points="194.05 330.38 193.75 330.35 188.65 337.91 183.55 330.35 183.26 330.38 183.26 330.35 179.83 330.35 179.83 347.84 183.26 347.84 183.26 335.79 188.65 343.64 194.05 335.71 194.05 347.84 197.45 347.84 197.45 330.35 194.05 330.35 194.05 330.38"/>
    <path class="cls-1" d="M211.62,330.35h-3.42l-6.9,17.49h3.62l1.47-3.85h7.25l1.47,3.85h3.62l-6.9-17.49h-.22ZM207.55,340.97l2.47-6.44,2.47,6.44h-4.93Z"/>
    <polygon class="cls-1" points="219.84 333.47 225.09 333.47 225.09 347.84 228.52 347.84 228.52 333.47 233.74 333.47 233.74 330.35 219.84 330.35 219.84 333.47"/>
    <rect class="cls-1" x="237.74" y="330.35" width="3.42" height="17.49"/>
    <polygon class="cls-1" points="253.84 343.92 248.68 330.35 245.01 330.35 251.98 347.84 252.36 347.84 255.33 347.84 255.71 347.84 262.65 330.35 258.98 330.35 253.84 343.92"/>
    <polygon class="cls-1" points="269.93 344.72 269.93 340.49 276.52 340.49 276.52 337.44 269.93 337.44 269.93 333.47 277.57 333.47 277.57 330.35 269.93 330.35 269.1 330.35 266.5 330.35 266.5 347.84 269.1 347.84 269.93 347.84 277.67 347.84 277.67 344.72 269.93 344.72"/>
  </g>
  <path id="symbol" class="cls-1" d="M214.23,72.53c-17.19,0-34.05,4.59-48.77,13.28-14.29,8.43-26.22,20.49-34.51,34.85l-1.32,2.29c-21.97,3.59-38.74,22.66-38.74,45.65s16.77,42.06,38.74,45.65l1.32,2.29c8.29,14.37,20.22,26.42,34.51,34.85,14.72,8.69,31.58,13.28,48.77,13.28,52.98,0,96.08-43.1,96.08-96.08s-43.1-96.08-96.08-96.08ZM108.63,195.39c-6.84-7.28-10.6-16.78-10.6-26.77s3.77-19.5,10.6-26.77c6.81-7.24,16-11.59,25.88-12.25.9-.06,1.79-.09,2.63-.09,21.57,0,39.11,17.55,39.11,39.11s-17.55,39.11-39.11,39.11c-.84,0-1.72-.03-2.63-.09-9.88-.65-19.08-5-25.88-12.25ZM214.23,257.54c-15.91,0-31.52-4.25-45.14-12.29-12.6-7.44-23.21-17.92-30.83-30.39,25.03-.6,45.14-21.07,45.14-46.25s-20.11-45.65-45.14-46.25c7.61-12.47,18.23-22.96,30.83-30.39,13.62-8.04,29.23-12.29,45.14-12.29,49.04,0,88.93,39.89,88.93,88.93s-39.89,88.93-88.93,88.93ZM117.6,154.51c0,2.11-1.71,3.81-3.81,3.81s-3.81-1.71-3.81-3.81,1.71-3.81,3.81-3.81,3.81,1.71,3.81,3.81ZM117.6,168.61c0,2.11-1.71,3.81-3.81,3.81s-3.81-1.71-3.81-3.81,1.71-3.81,3.81-3.81,3.81,1.71,3.81,3.81ZM117.6,182.72c0,2.11-1.71,3.81-3.81,3.81s-3.81-1.71-3.81-3.81,1.71-3.81,3.81-3.81,3.81,1.71,3.81,3.81ZM164.31,154.51c0,2.11-1.71,3.81-3.81,3.81s-3.81-1.71-3.81-3.81,1.71-3.81,3.81-3.81,3.81,1.71,3.81,3.81ZM164.31,168.61c0,2.11-1.71,3.81-3.81,3.81s-3.81-1.71-3.81-3.81,1.71-3.81,3.81-3.81,3.81,1.71,3.81,3.81ZM164.31,182.72c0,2.11-1.71,3.81-3.81,3.81s-3.81-1.71-3.81-3.81,1.71-3.81,3.81-3.81,3.81,1.71,3.81,3.81ZM133.17,154.51c0,2.11-1.71,3.81-3.81,3.81s-3.81-1.71-3.81-3.81,1.71-3.81,3.81-3.81,3.81,1.71,3.81,3.81ZM133.17,168.61c0,2.11-1.71,3.81-3.81,3.81s-3.81-1.71-3.81-3.81,1.71-3.81,3.81-3.81,3.81,1.71,3.81,3.81ZM133.17,182.72c0,2.11-1.71,3.81-3.81,3.81s-3.81-1.71-3.81-3.81,1.71-3.81,3.81-3.81,3.81,1.71,3.81,3.81ZM133.17,196.82c0,2.11-1.71,3.81-3.81,3.81s-3.81-1.71-3.81-3.81,1.71-3.81,3.81-3.81,3.81,1.71,3.81,3.81ZM148.74,154.51c0,2.11-1.71,3.81-3.81,3.81s-3.81-1.71-3.81-3.81,1.71-3.81,3.81-3.81,3.81,1.71,3.81,3.81ZM148.74,140.4c0,2.11-1.71,3.81-3.81,3.81s-3.81-1.71-3.81-3.81,1.71-3.81,3.81-3.81,3.81,1.71,3.81,3.81ZM133.17,140.4c0,2.11-1.71,3.81-3.81,3.81s-3.81-1.71-3.81-3.81,1.71-3.81,3.81-3.81,3.81,1.71,3.81,3.81ZM148.74,168.61c0,2.11-1.71,3.81-3.81,3.81s-3.81-1.71-3.81-3.81,1.71-3.81,3.81-3.81,3.81,1.71,3.81,3.81ZM148.74,182.72c0,2.11-1.71,3.81-3.81,3.81s-3.81-1.71-3.81-3.81,1.71-3.81,3.81-3.81,3.81,1.71,3.81,3.81ZM148.74,196.82c0,2.11-1.71,3.81-3.81,3.81s-3.81-1.71-3.81-3.81,1.71-3.81,3.81-3.81,3.81,1.71,3.81,3.81Z"/>
</svg>