<?xml version="1.0" encoding="UTF-8"?>
<svg id="productive" xmlns="http://www.w3.org/2000/svg" viewBox="0 0 400 400">
  <defs>
    <style>
      .cls-1 {
        fill: #fff;
        stroke-width: 0px;
      }
    </style>
  </defs>
  <g id="text">
    <path class="cls-1" d="M125.77,331.06c-.95-.51-2.04-.75-3.27-.74l-3.47.03h-3.02v17.49h3.42v-5.8h3.35c1.18,0,2.22-.25,3.12-.76.9-.51,1.61-1.2,2.12-2.09.52-.88.78-1.89.78-3.02s-.27-2.16-.8-3.04c-.53-.87-1.27-1.57-2.22-2.07ZM124.59,338.13c-.49.51-1.12.76-1.89.76h-3.27v-5.42h3c.57-.02,1.07.09,1.51.33s.78.55,1.03.96c.24.41.36.88.36,1.41,0,.8-.25,1.45-.74,1.96Z"/>
    <path class="cls-1" d="M142.49,340.93c.97-.47,1.73-1.14,2.29-2,.56-.86.84-1.84.84-2.94s-.27-2.1-.8-2.95-1.27-1.52-2.22-2.01c-.95-.49-2.04-.73-3.27-.71l-3.47.03h-3.02v17.49h3.42v-6.2h2.62l3.57,6.2h3.87l-4.06-6.81c.08-.03.16-.06.23-.1ZM136.25,333.47h2.92c.85,0,1.54.23,2.09.7.54.47.81,1.08.81,1.83,0,.48-.12.92-.36,1.3-.24.38-.57.68-.97.9-.41.22-.87.32-1.39.32h-3.1v-5.05Z"/>
    <path class="cls-1" d="M163.26,331.23c-1.35-.77-2.9-1.16-4.65-1.16s-3.29.38-4.64,1.15-2.4,1.83-3.16,3.19c-.77,1.36-1.15,2.92-1.15,4.69s.38,3.33,1.15,4.69c.77,1.36,1.83,2.42,3.19,3.2,1.36.77,2.92,1.16,4.69,1.16s3.29-.39,4.62-1.16c1.33-.77,2.38-1.84,3.14-3.2.76-1.36,1.14-2.91,1.14-4.66s-.38-3.33-1.15-4.69c-.77-1.36-1.83-2.42-3.17-3.2ZM163.4,342.15c-.46.89-1.1,1.59-1.91,2.1-.82.51-1.75.76-2.8.76s-2.04-.25-2.87-.76c-.83-.51-1.48-1.2-1.95-2.09s-.7-1.9-.7-3.05.23-2.19.7-3.07,1.11-1.58,1.94-2.09c.83-.51,1.76-.76,2.81-.76s2.03.25,2.85.76c.82.51,1.46,1.2,1.92,2.09.47.88.7,1.9.7,3.05s-.23,2.17-.69,3.06Z"/>
    <path class="cls-1" d="M182.44,331.47c-1.37-.75-2.95-1.12-4.74-1.12h-5.6v17.49h5.6c1.78,0,3.36-.38,4.72-1.12,1.37-.75,2.44-1.78,3.22-3.1.78-1.32,1.17-2.82,1.17-4.52s-.39-3.23-1.16-4.54c-.77-1.31-1.85-2.34-3.22-3.09ZM182.9,341.28c-.28.67-.68,1.26-1.19,1.76-.51.5-1.1.89-1.79,1.17-.68.28-1.42.42-2.22.42h-2.17v-11.1h2.17c.8,0,1.54.14,2.22.42.68.28,1.28.67,1.79,1.17.51.5.9,1.09,1.19,1.76s.43,1.4.43,2.19-.14,1.51-.43,2.19Z"/>
    <path class="cls-1" d="M201.97,341.32c0,.75-.15,1.4-.46,1.96-.31.56-.74.99-1.3,1.29-.56.3-1.21.45-1.96.45s-1.4-.15-1.96-.45c-.56-.3-.99-.73-1.3-1.29-.31-.56-.46-1.21-.46-1.96v-10.97h-3.42v10.97c0,1.4.29,2.61.86,3.64s1.4,1.82,2.46,2.39c1.07.57,2.32.85,3.77.85s2.74-.28,3.81-.85c1.07-.57,1.91-1.36,2.5-2.39.59-1.02.89-2.24.89-3.64v-10.97h-3.42v10.97Z"/>
    <path class="cls-1" d="M222,343.49c-.46.48-.98.86-1.57,1.14-.59.28-1.25.41-1.96.41-1.03,0-1.95-.25-2.75-.76-.8-.51-1.42-1.21-1.88-2.1-.45-.89-.67-1.92-.67-3.09s.22-2.19.66-3.07c.44-.88,1.06-1.58,1.85-2.09.79-.51,1.7-.76,2.71-.76.7,0,1.35.13,1.95.39.6.26,1.13.62,1.6,1.08s.84,1,1.12,1.61l3.17-1.17c-.42-.98-1.01-1.85-1.79-2.61-.77-.76-1.68-1.35-2.71-1.77s-2.15-.64-3.35-.64c-1.7,0-3.2.39-4.51,1.16-1.31.77-2.34,1.84-3.09,3.2-.75,1.36-1.12,2.92-1.12,4.69s.38,3.33,1.12,4.69c.75,1.36,1.78,2.42,3.1,3.2,1.32.77,2.82,1.16,4.52,1.16,1.22,0,2.34-.22,3.37-.65,1.03-.43,1.94-1.04,2.71-1.82.78-.78,1.37-1.68,1.79-2.7l-3.17-1.15c-.28.63-.65,1.19-1.11,1.67Z"/>
    <polygon class="cls-1" points="229.01 333.47 234.26 333.47 234.26 347.84 237.69 347.84 237.69 333.47 242.91 333.47 242.91 330.35 229.01 330.35 229.01 333.47"/>
    <rect class="cls-1" x="246.91" y="330.35" width="3.42" height="17.49"/>
    <polygon class="cls-1" points="263.01 343.92 257.85 330.35 254.18 330.35 261.15 347.84 261.53 347.84 264.5 347.84 264.88 347.84 271.82 330.35 268.15 330.35 263.01 343.92"/>
    <polygon class="cls-1" points="279.1 344.72 279.1 340.49 285.69 340.49 285.69 337.44 279.1 337.44 279.1 333.47 286.74 333.47 286.74 330.35 279.1 330.35 278.27 330.35 275.67 330.35 275.67 347.84 278.27 347.84 279.1 347.84 286.84 347.84 286.84 344.72 279.1 344.72"/>
  </g>
  <path id="symbol" class="cls-1" d="M191.69,237.97c-1.49,1.49-3.9,1.49-5.39,0-1.49-1.49-1.49-3.9,0-5.39,1.49-1.49,3.9-1.49,5.39,0,1.49,1.49,1.49,3.9,0,5.39ZM202.7,243.58c-1.49-1.49-3.9-1.49-5.39,0-1.49,1.49-1.49,3.9,0,5.39s3.9,1.49,5.39,0c1.49-1.49,1.49-3.9,0-5.39ZM192.72,253.56c-1.49-1.49-3.9-1.49-5.39,0-1.49,1.49-1.49,3.9,0,5.39,1.49,1.49,3.9,1.49,5.39,0,1.49-1.49,1.49-3.9,0-5.39ZM213.7,254.59c-1.49-1.49-3.9-1.49-5.39,0-1.49,1.49-1.49,3.9,0,5.39,1.49,1.49,3.9,1.49,5.39,0,1.49-1.49,1.49-3.9,0-5.39ZM212.67,233.61c-1.49-1.49-3.9-1.49-5.39,0s-1.49,3.9,0,5.39,3.9,1.49,5.39,0c1.49-1.49,1.49-3.9,0-5.39ZM279.82,198.62c0,1.97-1.6,3.57-3.57,3.57h-72.68v11.68c0,.07,0,.13-.01.2,16.22,1.78,28.84,15.51,28.84,32.21,0,17.9-14.51,32.41-32.41,32.41s-32.41-14.51-32.41-32.41c0-16.69,12.62-30.43,28.84-32.21,0-.07-.01-.13-.01-.2v-11.68h-72.68c-1.97,0-3.57-1.6-3.57-3.57s1.6-3.57,3.57-3.57h72.68v-38.6c-35.49-.13-64.32-29.04-64.32-64.56,0-1.13.03-2.28.09-3.43l.17-3.21,3.21-.17c1.15-.06,2.31-.09,3.44-.09,28.18,0,52.2,18.15,60.99,43.38,8.79-25.23,32.81-43.38,60.99-43.38,1.13,0,2.29.03,3.44.09l3.21.17.17,3.21c.06,1.15.09,2.31.09,3.43,0,35.52-28.83,64.43-64.32,64.56v38.6h72.68c1.97,0,3.57,1.6,3.57,3.57ZM217.63,111.95c-1.53,1.77-2.96,3.63-4.27,5.57l22,22c1.94-1.31,3.8-2.74,5.57-4.27l-23.3-23.3ZM209.63,123.9c-1.12,2.23-2.1,4.54-2.92,6.92l15.34,15.34c2.38-.82,4.69-1.8,6.92-2.92l-19.34-19.34ZM204.58,138.81c-.55,2.88-.88,5.84-.98,8.86l1.6,1.6c3.02-.1,5.98-.43,8.86-.98l-9.48-9.48ZM250.38,124.75l-22.26-22.26c-1.92,1.34-3.75,2.8-5.48,4.36l23.38,23.38c1.56-1.73,3.02-3.57,4.36-5.48ZM257.74,92.22c-2.96.17-5.86.56-8.68,1.16l10.44,10.44c.6-2.82.99-5.72,1.16-8.68l-2.92-2.92ZM241.21,95.64c-2.35.86-4.62,1.88-6.81,3.03l19.81,19.81c1.15-2.19,2.17-4.46,3.03-6.81l-16.03-16.03ZM159.08,135.25c1.77,1.53,3.63,2.96,5.57,4.27l22-22c-1.31-1.94-2.74-3.8-4.27-5.57l-23.3,23.3ZM171.03,143.24c2.23,1.12,4.54,2.1,6.92,2.92l15.34-15.34c-.82-2.38-1.8-4.69-2.92-6.92l-19.34,19.34ZM185.93,148.29c2.88.55,5.84.88,8.86.98l1.6-1.6c-.1-3.02-.43-5.98-.98-8.86l-9.48,9.48ZM139.34,95.13c.17,2.96.56,5.86,1.16,8.68l10.44-10.44c-2.82-.6-5.72-.99-8.68-1.16l-2.92,2.92ZM142.76,111.66c.86,2.35,1.88,4.62,3.03,6.81l19.81-19.81c-2.19-1.15-4.46-2.17-6.81-3.03l-16.03,16.03ZM153.98,130.23l23.38-23.38c-1.73-1.56-3.57-3.02-5.48-4.36l-22.26,22.26c1.34,1.92,2.8,3.75,4.36,5.48ZM200,221.02c-13.93,0-25.26,11.33-25.26,25.26s11.33,25.26,25.26,25.26,25.26-11.33,25.26-25.26-11.33-25.26-25.26-25.26Z"/>
</svg>