<?xml version="1.0" encoding="UTF-8"?>
<svg id="social" xmlns="http://www.w3.org/2000/svg" viewBox="0 0 400 400">
  <defs>
    <style>
      .cls-1 {
        fill: #000;
        stroke-width: 0px;
      }
    </style>
  </defs>
  <g id="text">
    <path class="cls-1" d="M160.04,337.83l-2.3-.58c-.65-.17-1.16-.41-1.54-.72s-.56-.75-.56-1.3c0-.7.24-1.24.71-1.62.47-.38,1.13-.58,1.96-.58s1.49.2,2.03.6c.53.4.9.88,1.1,1.45l3.32-1.03c-.3-.82-.73-1.52-1.3-2.12s-1.27-1.06-2.11-1.39c-.84-.33-1.82-.49-2.94-.49-2,0-3.54.46-4.63,1.39-1.09.92-1.64,2.21-1.64,3.86,0,.87.18,1.62.55,2.27s.88,1.2,1.53,1.64c.65.44,1.4.77,2.25.99l2.28.6c.77.2,1.37.49,1.81.86s.66.84.66,1.39c0,.63-.28,1.15-.84,1.55-.56.4-1.28.59-2.16.58-.83-.02-1.53-.23-2.07-.64-.55-.41-.93-.9-1.15-1.46l-3.35,1c.12.53.37,1.04.76,1.52.39.48.89.92,1.49,1.31.6.39,1.28.7,2.05.91.77.22,1.59.33,2.47.33,1.35,0,2.5-.22,3.45-.65.95-.43,1.67-1.04,2.17-1.81.5-.77.75-1.68.75-2.71,0-1.17-.42-2.22-1.25-3.17-.83-.95-2-1.61-3.5-1.97Z"/>
    <path class="cls-1" d="M182.03,331.24c-1.35-.77-2.9-1.16-4.65-1.16s-3.29.38-4.64,1.15c-1.34.77-2.39,1.83-3.16,3.19-.77,1.36-1.15,2.92-1.15,4.69s.38,3.33,1.15,4.69c.77,1.36,1.83,2.42,3.19,3.2s2.92,1.16,4.69,1.16,3.29-.39,4.62-1.16c1.33-.77,2.38-1.84,3.13-3.2.76-1.36,1.14-2.91,1.14-4.66s-.38-3.33-1.15-4.69c-.77-1.36-1.82-2.42-3.17-3.2ZM182.17,342.16c-.46.89-1.1,1.59-1.91,2.1-.82.51-1.75.76-2.8.76s-2.04-.25-2.87-.76c-.83-.51-1.48-1.2-1.95-2.09s-.7-1.9-.7-3.05.23-2.19.7-3.07,1.11-1.58,1.94-2.09c.83-.51,1.76-.76,2.81-.76s2.03.25,2.85.76c.82.51,1.46,1.2,1.92,2.09s.7,1.9.7,3.05-.23,2.17-.69,3.06Z"/>
    <path class="cls-1" d="M202.19,343.5c-.46.48-.98.86-1.57,1.14-.59.28-1.25.41-1.96.41-1.03,0-1.95-.25-2.75-.76-.8-.51-1.43-1.21-1.88-2.1-.45-.89-.67-1.92-.67-3.09s.22-2.19.66-3.07c.44-.88,1.06-1.58,1.85-2.09.79-.51,1.7-.76,2.71-.76.7,0,1.35.13,1.95.39.6.26,1.13.62,1.6,1.08s.84,1,1.12,1.61l3.17-1.17c-.42-.98-1.01-1.85-1.79-2.61-.78-.76-1.68-1.35-2.71-1.77s-2.15-.64-3.35-.64c-1.7,0-3.2.39-4.51,1.16s-2.34,1.84-3.09,3.2c-.75,1.36-1.12,2.92-1.12,4.69s.38,3.33,1.12,4.69c.75,1.36,1.78,2.42,3.1,3.2,1.31.77,2.82,1.16,4.52,1.16,1.21,0,2.34-.22,3.37-.65,1.03-.43,1.94-1.04,2.71-1.82.78-.78,1.37-1.68,1.79-2.7l-3.17-1.15c-.28.63-.65,1.19-1.11,1.67Z"/>
    <rect class="cls-1" x="210.75" y="330.36" width="3.42" height="17.49"/>
    <path class="cls-1" d="M228.34,330.36h-3.42l-6.9,17.49h3.62l1.47-3.85h7.25l1.47,3.85h3.62l-6.9-17.49h-.22ZM224.28,340.98l2.47-6.44,2.47,6.44h-4.93Z"/>
    <polygon class="cls-1" points="242.74 344.73 242.74 330.36 239.31 330.36 239.31 347.85 241.51 347.85 242.74 347.85 250.43 347.85 250.43 344.73 242.74 344.73"/>
  </g>
  <path id="symbol" class="cls-1" d="M200,79.67c23.76,0,46.09,9.25,62.89,26.05,16.8,16.8,26.05,39.13,26.05,62.89s-9.25,46.09-26.05,62.89c-16.8,16.8-39.13,26.05-62.89,26.05s-46.09-9.25-62.89-26.05c-16.8-16.8-26.05-39.13-26.05-62.89s9.25-46.09,26.05-62.89c16.8-16.8,39.13-26.05,62.89-26.05M200,72.52c-53.07,0-96.08,43.02-96.08,96.08s43.02,96.08,96.08,96.08,96.08-43.02,96.08-96.08-43.02-96.08-96.08-96.08h0ZM205.05,229.58l5.1-5.1c1.4-1.4,1.4-3.66,0-5.05-1.4-1.4-3.66-1.4-5.05,0l-5.1,5.1-5.1-5.1c-1.4-1.4-3.66-1.4-5.05,0-1.4,1.4-1.4,3.66,0,5.05l5.1,5.1-5.1,5.1c-1.4,1.4-1.4,3.66,0,5.05.7.7,1.61,1.05,2.53,1.05s1.83-.35,2.53-1.05l5.1-5.1,5.1,5.1c.7.7,1.61,1.05,2.53,1.05s1.83-.35,2.53-1.05c1.4-1.4,1.4-3.66,0-5.05l-5.1-5.1ZM256.53,210.78h-7.21v-7.21c0-1.97-1.6-3.57-3.57-3.57s-3.57,1.6-3.57,3.57v7.21h-7.21c-1.97,0-3.57,1.6-3.57,3.57s1.6,3.57,3.57,3.57h7.21v7.21c0,1.97,1.6,3.57,3.57,3.57s3.57-1.6,3.57-3.57v-7.21h7.21c1.97,0,3.57-1.6,3.57-3.57s-1.6-3.57-3.57-3.57ZM266.04,168.6l5.1-5.1c1.4-1.4,1.4-3.66,0-5.05-1.4-1.4-3.66-1.4-5.05,0l-5.1,5.1-5.1-5.1c-1.4-1.4-3.66-1.4-5.05,0-1.4,1.4-1.4,3.66,0,5.05l5.1,5.1-5.1,5.1c-1.4,1.4-1.4,3.66,0,5.05.7.7,1.61,1.05,2.53,1.05s1.83-.35,2.53-1.05l5.1-5.1,5.1,5.1c.7.7,1.61,1.05,2.53,1.05s1.83-.35,2.53-1.05c1.4-1.4,1.4-3.66,0-5.05l-5.1-5.1ZM210.15,97.47c-1.4-1.4-3.66-1.4-5.05,0l-5.1,5.1-5.1-5.1c-1.4-1.4-3.66-1.4-5.05,0-1.4,1.4-1.4,3.66,0,5.05l5.1,5.1-5.1,5.1c-1.4,1.4-1.4,3.66,0,5.05.7.7,1.61,1.05,2.53,1.05s1.83-.35,2.53-1.05l5.1-5.1,5.1,5.1c.7.7,1.61,1.05,2.53,1.05s1.83-.35,2.53-1.05c1.4-1.4,1.4-3.66,0-5.05l-5.1-5.1,5.1-5.1c1.4-1.4,1.4-3.66,0-5.05ZM256.53,119.28h-7.21v-7.21c0-1.97-1.6-3.57-3.57-3.57s-3.57,1.6-3.57,3.57v7.21h-7.21c-1.97,0-3.57,1.6-3.57,3.57s1.6,3.57,3.57,3.57h7.21v7.21c0,1.97,1.6,3.57,3.57,3.57s3.57-1.6,3.57-3.57v-7.21h7.21c1.97,0,3.57-1.6,3.57-3.57s-1.6-3.57-3.57-3.57ZM165.03,119.28h-7.21v-7.21c0-1.97-1.6-3.57-3.57-3.57s-3.57,1.6-3.57,3.57v7.21h-7.21c-1.97,0-3.57,1.6-3.57,3.57s1.6,3.57,3.57,3.57h7.21v7.21c0,1.97,1.6,3.57,3.57,3.57s3.57-1.6,3.57-3.57v-7.21h7.21c1.97,0,3.57-1.6,3.57-3.57s-1.6-3.57-3.57-3.57ZM144.12,178.75c.7.7,1.61,1.05,2.53,1.05s1.83-.35,2.53-1.05c1.4-1.4,1.4-3.66,0-5.05l-5.1-5.1,5.1-5.1c1.4-1.4,1.4-3.66,0-5.05-1.4-1.4-3.66-1.4-5.05,0l-5.1,5.1-5.1-5.1c-1.4-1.4-3.66-1.4-5.05,0-1.4,1.4-1.4,3.66,0,5.05l5.1,5.1-5.1,5.1c-1.4,1.4-1.4,3.66,0,5.05.7.7,1.61,1.05,2.53,1.05s1.83-.35,2.53-1.05l5.1-5.1,5.1,5.1ZM165.03,210.78h-7.21v-7.21c0-1.97-1.6-3.57-3.57-3.57s-3.57,1.6-3.57,3.57v7.21h-7.21c-1.97,0-3.57,1.6-3.57,3.57s1.6,3.57,3.57,3.57h7.21v7.21c0,1.97,1.6,3.57,3.57,3.57s3.57-1.6,3.57-3.57v-7.21h7.21c1.97,0,3.57-1.6,3.57-3.57s-1.6-3.57-3.57-3.57ZM184.73,149.54c-2.11,0-3.81,1.71-3.81,3.81s1.71,3.81,3.81,3.81,3.81-1.71,3.81-3.81-1.71-3.81-3.81-3.81ZM169.48,164.79c-2.11,0-3.81,1.71-3.81,3.81s1.71,3.81,3.81,3.81,3.81-1.71,3.81-3.81-1.71-3.81-3.81-3.81ZM184.73,180.04c-2.11,0-3.81,1.71-3.81,3.81s1.71,3.81,3.81,3.81,3.81-1.71,3.81-3.81-1.71-3.81-3.81-3.81ZM200,149.54c-2.11,0-3.81,1.71-3.81,3.81s1.71,3.81,3.81,3.81,3.81-1.71,3.81-3.81-1.71-3.81-3.81-3.81ZM200,164.79c-2.11,0-3.81,1.71-3.81,3.81s1.71,3.81,3.81,3.81,3.81-1.71,3.81-3.81-1.71-3.81-3.81-3.81ZM215.23,164.79c-2.11,0-3.81,1.71-3.81,3.81s1.71,3.81,3.81,3.81,3.81-1.71,3.81-3.81-1.71-3.81-3.81-3.81ZM184.73,164.79c-2.11,0-3.81,1.71-3.81,3.81s1.71,3.81,3.81,3.81,3.81-1.71,3.81-3.81-1.71-3.81-3.81-3.81ZM200,180.04c-2.11,0-3.81,1.71-3.81,3.81s1.71,3.81,3.81,3.81,3.81-1.71,3.81-3.81-1.71-3.81-3.81-3.81ZM200,195.29c-2.11,0-3.81,1.71-3.81,3.81s1.71,3.81,3.81,3.81,3.81-1.71,3.81-3.81-1.71-3.81-3.81-3.81ZM215.23,149.54c-2.11,0-3.81,1.71-3.81,3.81s1.71,3.81,3.81,3.81,3.81-1.71,3.81-3.81-1.71-3.81-3.81-3.81ZM200,134.29c-2.11,0-3.81,1.71-3.81,3.81s1.71,3.81,3.81,3.81,3.81-1.71,3.81-3.81-1.71-3.81-3.81-3.81ZM230.29,164.79c-2.11,0-3.81,1.71-3.81,3.81s1.71,3.81,3.81,3.81,3.81-1.71,3.81-3.81-1.71-3.81-3.81-3.81ZM215.23,180.04c-2.11,0-3.81,1.71-3.81,3.81s1.71,3.81,3.81,3.81,3.81-1.71,3.81-3.81-1.71-3.81-3.81-3.81Z"/>
</svg>