<?xml version="1.0" encoding="UTF-8"?>
<svg id="discursive" xmlns="http://www.w3.org/2000/svg" viewBox="0 0 400 400">
  <defs>
    <style>
      .cls-1 {
        fill: #fff;
        stroke-width: 0px;
      }
    </style>
  </defs>
  <g id="text">
    <path class="cls-1" d="M131.66,331.48c-1.37-.75-2.95-1.12-4.74-1.12h-5.6v17.49h5.6c1.78,0,3.36-.38,4.72-1.12s2.44-1.78,3.22-3.1c.78-1.32,1.17-2.82,1.17-4.52s-.39-3.23-1.16-4.54c-.77-1.31-1.85-2.34-3.22-3.09ZM132.12,341.29c-.28.67-.68,1.26-1.19,1.76-.51.5-1.1.89-1.79,1.17-.68.29-1.42.43-2.22.43h-2.17v-11.1h2.17c.8,0,1.54.14,2.22.42.68.28,1.28.68,1.79,1.18.51.5.9,1.09,1.19,1.76.28.67.43,1.4.43,2.19s-.14,1.51-.43,2.19Z"/>
    <rect class="cls-1" x="140.57" y="330.36" width="3.42" height="17.49"/>
    <path class="cls-1" d="M157.04,337.83l-2.3-.58c-.65-.17-1.16-.41-1.54-.72s-.56-.75-.56-1.3c0-.7.24-1.24.71-1.62.47-.38,1.13-.57,1.96-.57s1.49.2,2.02.6c.53.4.9.88,1.1,1.45l3.32-1.03c-.3-.81-.73-1.52-1.3-2.12s-1.27-1.06-2.11-1.39c-.84-.33-1.82-.49-2.94-.49-2,0-3.54.46-4.64,1.39-1.09.93-1.64,2.21-1.64,3.86,0,.87.18,1.62.55,2.28.37.65.87,1.2,1.52,1.64.65.44,1.4.77,2.25.99l2.27.6c.77.2,1.37.49,1.81.86s.66.84.66,1.39c0,.63-.28,1.15-.84,1.55-.56.4-1.28.59-2.16.58-.83-.02-1.52-.23-2.07-.64s-.93-.89-1.15-1.46l-3.35,1c.12.53.37,1.04.76,1.52.39.48.89.92,1.49,1.31s1.28.7,2.05.91,1.59.32,2.47.32c1.35,0,2.5-.22,3.45-.65.95-.43,1.67-1.04,2.17-1.81s.75-1.68.75-2.71c0-1.17-.42-2.22-1.25-3.17-.83-.95-2-1.61-3.5-1.97Z"/>
    <path class="cls-1" d="M177.77,343.5c-.46.48-.98.86-1.57,1.14-.59.28-1.25.41-1.96.41-1.03,0-1.95-.25-2.75-.76-.8-.51-1.42-1.21-1.88-2.1-.45-.89-.67-1.92-.67-3.09s.22-2.19.66-3.07,1.06-1.58,1.85-2.09c.79-.51,1.7-.76,2.71-.76.7,0,1.35.13,1.95.39s1.13.62,1.6,1.07c.47.46.84,1,1.12,1.61l3.17-1.18c-.42-.98-1.01-1.85-1.79-2.61s-1.68-1.35-2.71-1.78c-1.03-.42-2.15-.64-3.35-.64-1.7,0-3.2.39-4.51,1.16-1.31.78-2.34,1.84-3.09,3.2-.75,1.36-1.12,2.92-1.12,4.69s.38,3.33,1.12,4.69c.75,1.36,1.78,2.43,3.1,3.2,1.32.78,2.82,1.16,4.52,1.16,1.22,0,2.34-.22,3.37-.65,1.03-.43,1.94-1.04,2.71-1.82.78-.78,1.37-1.68,1.79-2.7l-3.17-1.15c-.28.63-.65,1.19-1.11,1.67Z"/>
    <path class="cls-1" d="M196.95,341.33c0,.75-.15,1.4-.46,1.96-.31.56-.74.99-1.3,1.29-.56.3-1.21.45-1.96.45s-1.4-.15-1.96-.45c-.56-.3-.99-.73-1.3-1.29-.31-.56-.46-1.21-.46-1.96v-10.97h-3.42v10.97c0,1.4.29,2.61.86,3.64.58,1.02,1.4,1.82,2.46,2.39,1.07.57,2.32.85,3.77.85s2.74-.28,3.81-.85c1.07-.57,1.91-1.36,2.5-2.39.59-1.03.89-2.24.89-3.64v-10.97h-3.42v10.97Z"/>
    <path class="cls-1" d="M215.35,340.94c.97-.47,1.73-1.14,2.29-2,.56-.86.84-1.84.84-2.94s-.27-2.1-.8-2.95-1.27-1.52-2.22-2.01c-.95-.49-2.04-.73-3.27-.71l-3.47.03h-3.02v17.49h3.42v-6.2h2.62l3.57,6.2h3.87l-4.06-6.81c.08-.03.16-.06.23-.1ZM209.1,333.48h2.92c.85,0,1.54.23,2.09.7.54.47.81,1.08.81,1.83,0,.48-.12.92-.36,1.3-.24.38-.57.68-.97.9-.41.22-.87.32-1.39.32h-3.1v-5.05Z"/>
    <path class="cls-1" d="M231.04,337.83l-2.3-.58c-.65-.17-1.16-.41-1.54-.72s-.56-.75-.56-1.3c0-.7.24-1.24.71-1.62.47-.38,1.13-.57,1.96-.57s1.49.2,2.02.6c.53.4.9.88,1.1,1.45l3.32-1.03c-.3-.81-.73-1.52-1.3-2.12s-1.27-1.06-2.11-1.39c-.84-.33-1.82-.49-2.94-.49-2,0-3.54.46-4.64,1.39-1.09.93-1.64,2.21-1.64,3.86,0,.87.18,1.62.55,2.28.37.65.87,1.2,1.52,1.64.65.44,1.4.77,2.25.99l2.27.6c.77.2,1.37.49,1.81.86s.66.84.66,1.39c0,.63-.28,1.15-.84,1.55-.56.4-1.28.59-2.16.58-.83-.02-1.52-.23-2.07-.64s-.93-.89-1.15-1.46l-3.35,1c.12.53.37,1.04.76,1.52.39.48.89.92,1.49,1.31s1.28.7,2.05.91,1.59.32,2.47.32c1.35,0,2.5-.22,3.45-.65.95-.43,1.67-1.04,2.17-1.81s.75-1.68.75-2.71c0-1.17-.42-2.22-1.25-3.17-.83-.95-2-1.61-3.5-1.97Z"/>
    <rect class="cls-1" x="240.46" y="330.36" width="3.42" height="17.49"/>
    <polygon class="cls-1" points="256.57 343.93 251.41 330.36 247.73 330.36 254.71 347.85 255.08 347.85 258.06 347.85 258.43 347.85 265.38 330.36 261.7 330.36 256.57 343.93"/>
    <polygon class="cls-1" points="272.65 344.73 272.65 340.5 279.25 340.5 279.25 337.46 272.65 337.46 272.65 333.48 280.3 333.48 280.3 330.36 272.65 330.36 271.83 330.36 269.23 330.36 269.23 347.85 271.83 347.85 272.65 347.85 280.4 347.85 280.4 344.73 272.65 344.73"/>
  </g>
  <path id="symbol" class="cls-1" d="M130.42,221.5c9.2,0,16.68,7.48,16.68,16.68s-7.48,16.68-16.68,16.68-16.68-7.48-16.68-16.68,7.48-16.68,16.68-16.68M130.42,214.35c-13.16,0-23.83,10.67-23.83,23.83s10.67,23.83,23.83,23.83,23.83-10.67,23.83-23.83-10.67-23.83-23.83-23.83h0ZM269.58,221.5c9.2,0,16.68,7.48,16.68,16.68s-7.48,16.68-16.68,16.68-16.68-7.48-16.68-16.68,7.48-16.68,16.68-16.68M269.58,214.35c-13.16,0-23.83,10.67-23.83,23.83s10.67,23.83,23.83,23.83,23.83-10.67,23.83-23.83-10.67-23.83-23.83-23.83h0ZM130.42,82.34c9.2,0,16.68,7.48,16.68,16.68s-7.48,16.68-16.68,16.68-16.68-7.48-16.68-16.68,7.48-16.68,16.68-16.68M130.42,75.19c-13.16,0-23.83,10.67-23.83,23.83s10.67,23.83,23.83,23.83,23.83-10.67,23.83-23.83-10.67-23.83-23.83-23.83h0ZM269.58,82.34c9.2,0,16.68,7.48,16.68,16.68s-7.48,16.68-16.68,16.68-16.68-7.48-16.68-16.68,7.48-16.68,16.68-16.68M269.58,75.19c-13.16,0-23.83,10.67-23.83,23.83s10.67,23.83,23.83,23.83,23.83-10.67,23.83-23.83-10.67-23.83-23.83-23.83h0ZM203.57,206.73v-76.25c0-1.97-1.6-3.57-3.57-3.57s-3.57,1.6-3.57,3.57v76.25c0,1.97,1.6,3.57,3.57,3.57s3.57-1.6,3.57-3.57ZM180.7,197.19v-57.19c0-1.97-1.6-3.57-3.57-3.57s-3.57,1.6-3.57,3.57v57.19c0,1.97,1.6,3.57,3.57,3.57s3.57-1.6,3.57-3.57ZM226.45,197.19v-57.19c0-1.97-1.6-3.57-3.57-3.57s-3.57,1.6-3.57,3.57v57.19c0,1.97,1.6,3.57,3.57,3.57s3.57-1.6,3.57-3.57ZM157.82,187.66v-38.12c0-1.97-1.6-3.57-3.57-3.57s-3.57,1.6-3.57,3.57v38.12c0,1.97,1.6,3.57,3.57,3.57s3.57-1.6,3.57-3.57ZM249.32,187.66v-38.12c0-1.97-1.6-3.57-3.57-3.57s-3.57,1.6-3.57,3.57v38.12c0,1.97,1.6,3.57,3.57,3.57s3.57-1.6,3.57-3.57Z"/>
</svg>