<?xml version="1.0" encoding="UTF-8"?>
<svg id="investigative" xmlns="http://www.w3.org/2000/svg" viewBox="0 0 400 400">
  <defs>
    <style>
      .cls-1 {
        fill: #fff;
        stroke-width: 0px;
      }
    </style>
  </defs>
  <g id="text">
    <path class="cls-1" d="M99.82,347.85v-17.49h3.42v17.49h-3.42Z"/>
    <path class="cls-1" d="M108.8,347.85v-17.49h3.57l-.15,3.02v14.5l-3.42-.03ZM120.92,347.85l-11.32-15.62,2.77-1.87,11.27,15.54-2.72,1.95ZM120.92,347.85v-17.49h3.4v17.49h-3.4Z"/>
    <path class="cls-1" d="M135.14,347.85l-6.97-17.49h3.67l6.65,17.49h-3.35ZM135.51,347.85l6.62-17.49h3.67l-6.95,17.49h-3.35Z"/>
    <path class="cls-1" d="M149.66,347.85v-17.49h3.42v17.49h-3.42ZM152.26,333.48v-3.12h8.47v3.12h-8.47ZM152.26,340.5v-3.05h7.42v3.05h-7.42ZM152.26,347.85v-3.12h8.57v3.12h-8.57Z"/>
    <path class="cls-1" d="M172,348.15c-.88,0-1.71-.11-2.47-.33-.77-.22-1.45-.52-2.05-.91-.6-.39-1.1-.83-1.49-1.31s-.65-.99-.76-1.52l3.35-1c.22.57.6,1.05,1.15,1.46s1.24.62,2.07.64c.88.02,1.6-.17,2.16-.58.56-.4.84-.92.84-1.55,0-.55-.22-1.01-.66-1.39s-1.05-.66-1.81-.86l-2.27-.6c-.85-.22-1.6-.55-2.25-.99-.65-.44-1.16-.99-1.52-1.64-.37-.65-.55-1.41-.55-2.27,0-1.65.55-2.94,1.64-3.86,1.09-.92,2.64-1.39,4.64-1.39,1.12,0,2.09.16,2.94.49.84.33,1.54.79,2.11,1.39s1,1.31,1.3,2.12l-3.32,1.03c-.2-.57-.57-1.05-1.1-1.45-.53-.4-1.21-.6-2.02-.6s-1.49.19-1.96.58c-.48.38-.71.92-.71,1.62,0,.55.19.98.56,1.3s.89.56,1.54.72l2.3.58c1.5.37,2.67,1.02,3.5,1.97.83.95,1.25,2.01,1.25,3.17,0,1.03-.25,1.94-.75,2.71-.5.78-1.22,1.38-2.17,1.81-.95.43-2.1.65-3.45.65Z"/>
    <path class="cls-1" d="M181.49,333.48v-3.12h13.9v3.12h-13.9ZM186.74,347.85v-16.04h3.42v16.04h-3.42Z"/>
    <path class="cls-1" d="M199.39,347.85v-17.49h3.42v17.49h-3.42Z"/>
    <path class="cls-1" d="M216.48,348.15c-1.78,0-3.36-.39-4.74-1.16-1.38-.77-2.45-1.84-3.24-3.2-.78-1.36-1.17-2.92-1.17-4.69s.39-3.33,1.17-4.69c.78-1.36,1.86-2.42,3.24-3.2,1.37-.77,2.95-1.16,4.74-1.16,1.07,0,2.05.16,2.95.47s1.7.75,2.39,1.31c.69.56,1.27,1.2,1.74,1.91l-2.8,1.75c-.28-.45-.65-.85-1.11-1.2-.46-.35-.96-.62-1.51-.82s-1.1-.3-1.65-.3c-1.1,0-2.07.25-2.92.76-.85.51-1.52,1.2-2,2.09-.48.88-.72,1.91-.72,3.07s.24,2.17.71,3.07c.47.9,1.15,1.6,2.01,2.11.87.51,1.87.76,3,.76.88,0,1.67-.17,2.36-.53.69-.35,1.24-.84,1.64-1.47.4-.63.6-1.37.6-2.2l3.25-.5c0,1.65-.34,3.06-1.01,4.22s-1.61,2.05-2.8,2.66-2.56.91-4.11.91ZM217.06,341.15v-2.67h7.35v2.12l-1.85.55h-5.5Z"/>
    <path class="cls-1" d="M226.38,347.85l6.9-17.49h3.42l-6.7,17.49h-3.62ZM229.63,344v-3.02h10.97v3.02h-10.97ZM240.2,347.85l-6.7-17.49h3.42l6.9,17.49h-3.62Z"/>
    <path class="cls-1" d="M244.92,333.48v-3.12h13.9v3.12h-13.9ZM250.17,347.85v-16.04h3.42v16.04h-3.42Z"/>
    <path class="cls-1" d="M262.82,347.85v-17.49h3.42v17.49h-3.42Z"/>
    <path class="cls-1" d="M277.06,347.85l-6.97-17.49h3.67l6.65,17.49h-3.35ZM277.44,347.85l6.62-17.49h3.67l-6.95,17.49h-3.35Z"/>
    <path class="cls-1" d="M291.58,347.85v-17.49h3.42v17.49h-3.42ZM294.18,333.48v-3.12h8.47v3.12h-8.47ZM294.18,340.5v-3.05h7.42v3.05h-7.42ZM294.18,347.85v-3.12h8.57v3.12h-8.57Z"/>
  </g>
  <g id="symbol">
    <g>
      <circle class="cls-1" cx="137.09" cy="215.94" r="3.81"/>
      <circle class="cls-1" cx="137.09" cy="231.51" r="3.81"/>
      <circle class="cls-1" cx="122.99" cy="231.51" r="3.81"/>
      <circle class="cls-1" cx="137.09" cy="247.07" r="3.81"/>
      <circle class="cls-1" cx="151.2" cy="231.51" r="3.81"/>
    </g>
    <path class="cls-1" d="M295.07,119.04v19.06c0,17.58-9.37,25.96-17.23,29.88-8.28,4.14-16.5,4.19-16.85,4.19h-57.43v14.54c0,1.97-1.6,3.57-3.57,3.57s-3.57-1.6-3.57-3.57v-14.54h-26.93c-11.09,0-18.96,4.4-23.39,13.07-3.46,6.79-3.54,13.8-3.54,13.86,0,.15-.01.31-.03.46,15.3,2.59,26.96,15.9,26.96,31.94,0,17.9-14.51,32.41-32.41,32.41s-32.41-14.51-32.41-32.41,13.62-31.5,30.74-32.36c0-.01,0-.03,0-.04,0-.35.05-8.56,4.19-16.85,3.65-7.3,11.15-15.91,26.31-17.09v-1.86c0-1.97,1.6-3.57,3.57-3.57s3.57,1.6,3.57,3.57v1.72h87.93c.06,0,7.07-.08,13.86-3.54,8.67-4.42,13.07-12.29,13.07-23.39v-19.06c0-1.97,1.6-3.57,3.57-3.57s3.57,1.6,3.57,3.57ZM137.09,206.25c-13.93,0-25.26,11.33-25.26,25.26s11.33,25.26,25.26,25.26,25.26-11.33,25.26-25.26-11.33-25.26-25.26-25.26ZM261,226.03h-17.89c-1.97,0-3.57,1.6-3.57,3.57s1.6,3.57,3.57,3.57h17.89c1.97,0,3.57-1.6,3.57-3.57s-1.6-3.57-3.57-3.57ZM203.57,199.09c0-1.97-1.6-3.57-3.57-3.57s-3.57,1.6-3.57,3.57c0,.41.06,10.14,5.43,19.12.67,1.12,1.85,1.74,3.07,1.74.62,0,1.26-.16,1.83-.51,1.69-1.01,2.25-3.21,1.23-4.9-4.31-7.21-4.42-15.32-4.42-15.46ZM230.73,226.03h-.23c-5.99,0-11.09-1.29-15.15-3.84-1.67-1.05-3.88-.54-4.93,1.13-1.05,1.67-.55,3.88,1.13,4.93,5.22,3.28,11.6,4.94,18.96,4.94h.23c1.97,0,3.57-1.6,3.57-3.57s-1.6-3.57-3.57-3.57ZM199.77,111.18s.07,0,.1,0h.13c.4,0,9.98-.06,18.9-5.31,1.7-1,2.27-3.19,1.27-4.89-1-1.7-3.19-2.27-4.89-1.27-7.2,4.23-15.21,4.32-15.28,4.32,0,0-.11,0-.33,0-1.97.06-3.53,1.7-3.47,3.67.05,1.94,1.64,3.47,3.57,3.47ZM224.06,97.35c.6.38,1.26.56,1.92.56,1.18,0,2.33-.58,3.01-1.65,3.37-5.26,5.08-11.71,5.08-19.17,0-1.97-1.6-3.57-3.57-3.57s-3.57,1.6-3.57,3.57c0,6.07-1.33,11.23-3.95,15.32-1.06,1.66-.58,3.87,1.08,4.94ZM169.5,154.5c1.97,0,3.57-1.6,3.57-3.57v-12.83c0-1.66.1-3.27.3-4.79.25-1.96-1.13-3.75-3.08-4.01-1.96-.26-3.75,1.13-4,3.08-.24,1.82-.36,3.74-.36,5.71v12.83c0,1.97,1.6,3.57,3.57,3.57ZM171.9,124.28c.58.36,1.23.53,1.87.53,1.2,0,2.37-.6,3.05-1.7,2.66-4.32,6.74-7.56,12.13-9.65,1.84-.71,2.76-2.78,2.04-4.62-.71-1.84-2.78-2.76-4.62-2.04-6.88,2.66-12.14,6.89-15.64,12.56-1.04,1.68-.51,3.88,1.17,4.92Z"/>
  </g>
</svg>